<svg id="visual" viewBox="0 0 3840 2160" width="3840" height="2160" xmlns="http://www.w3.org/2000/svg" xmlns:xlink="http://www.w3.org/1999/xlink" version="1.1"><rect x="0" y="0" width="3840" height="2160" fill="#06283D"></rect><path d="M2149 2160L2147 2108.5C2145 2057 2141 1954 2125.2 1851.2C2109.3 1748.3 2081.7 1645.7 2062.2 1542.8C2042.7 1440 2031.3 1337 2079.7 1234.2C2128 1131.3 2236 1028.7 2250.8 925.8C2265.7 823 2187.3 720 2230.8 617.2C2274.3 514.3 2439.7 411.7 2494 308.8C2548.3 206 2491.7 103 2463.3 51.5L2435 0L3840 0L3840 51.5C3840 103 3840 206 3840 308.8C3840 411.7 3840 514.3 3840 617.2C3840 720 3840 823 3840 925.8C3840 1028.7 3840 1131.3 3840 1234.2C3840 1337 3840 1440 3840 1542.8C3840 1645.7 3840 1748.3 3840 1851.2C3840 1954 3840 2057 3840 2108.5L3840 2160Z" fill="#47b5ff"></path><path d="M2797 2160L2743.8 2108.5C2690.7 2057 2584.3 1954 2538 1851.2C2491.7 1748.3 2505.3 1645.7 2567.5 1542.8C2629.7 1440 2740.3 1337 2722.3 1234.2C2704.3 1131.3 2557.7 1028.7 2557 925.8C2556.3 823 2701.7 720 2707.7 617.2C2713.7 514.3 2580.3 411.7 2581.8 308.8C2583.3 206 2719.7 103 2787.8 51.5L2856 0L3840 0L3840 51.5C3840 103 3840 206 3840 308.8C3840 411.7 3840 514.3 3840 617.2C3840 720 3840 823 3840 925.8C3840 1028.7 3840 1131.3 3840 1234.2C3840 1337 3840 1440 3840 1542.8C3840 1645.7 3840 1748.3 3840 1851.2C3840 1954 3840 2057 3840 2108.5L3840 2160Z" fill="#27a2fa"></path><path d="M2965 2160L2984.8 2108.5C3004.7 2057 3044.3 1954 3016 1851.2C2987.7 1748.3 2891.3 1645.7 2877.3 1542.8C2863.3 1440 2931.7 1337 2974.2 1234.2C3016.7 1131.3 3033.3 1028.7 3017 925.8C3000.7 823 2951.3 720 2935.2 617.2C2919 514.3 2936 411.7 2929 308.8C2922 206 2891 103 2875.5 51.5L2860 0L3840 0L3840 51.5C3840 103 3840 206 3840 308.8C3840 411.7 3840 514.3 3840 617.2C3840 720 3840 823 3840 925.8C3840 1028.7 3840 1131.3 3840 1234.2C3840 1337 3840 1440 3840 1542.8C3840 1645.7 3840 1748.3 3840 1851.2C3840 1954 3840 2057 3840 2108.5L3840 2160Z" fill="#008ef3"></path><path d="M3298 2160L3302.3 2108.5C3306.7 2057 3315.3 1954 3301.3 1851.2C3287.3 1748.3 3250.7 1645.7 3220.3 1542.8C3190 1440 3166 1337 3134.8 1234.2C3103.7 1131.3 3065.3 1028.7 3042.3 925.8C3019.3 823 3011.7 720 3020.3 617.2C3029 514.3 3054 411.7 3083.2 308.8C3112.3 206 3145.7 103 3162.3 51.5L3179 0L3840 0L3840 51.5C3840 103 3840 206 3840 308.8C3840 411.7 3840 514.3 3840 617.2C3840 720 3840 823 3840 925.8C3840 1028.7 3840 1131.3 3840 1234.2C3840 1337 3840 1440 3840 1542.8C3840 1645.7 3840 1748.3 3840 1851.2C3840 1954 3840 2057 3840 2108.5L3840 2160Z" fill="#0079ea"></path><path d="M3576 2160L3573.8 2108.5C3571.7 2057 3567.3 1954 3531.2 1851.2C3495 1748.3 3427 1645.7 3409.2 1542.8C3391.3 1440 3423.7 1337 3448.2 1234.2C3472.7 1131.3 3489.3 1028.7 3514.2 925.8C3539 823 3572 720 3547.2 617.2C3522.3 514.3 3439.7 411.7 3426.3 308.8C3413 206 3469 103 3497 51.5L3525 0L3840 0L3840 51.5C3840 103 3840 206 3840 308.8C3840 411.7 3840 514.3 3840 617.2C3840 720 3840 823 3840 925.8C3840 1028.7 3840 1131.3 3840 1234.2C3840 1337 3840 1440 3840 1542.8C3840 1645.7 3840 1748.3 3840 1851.2C3840 1954 3840 2057 3840 2108.5L3840 2160Z" fill="#1363df"></path></svg>