<svg id="visual" viewBox="0 0 3840 2160" width="3840" height="2160" xmlns="http://www.w3.org/2000/svg" xmlns:xlink="http://www.w3.org/1999/xlink" version="1.1"><rect x="0" y="0" width="3840" height="2160" fill="#06283D"></rect><path d="M2439 2160L2429.8 2108.5C2420.7 2057 2402.3 1954 2384 1851.2C2365.7 1748.3 2347.3 1645.7 2376 1542.8C2404.7 1440 2480.3 1337 2428.3 1234.2C2376.3 1131.3 2196.7 1028.7 2115.7 925.8C2034.7 823 2052.3 720 2079.2 617.2C2106 514.3 2142 411.7 2167.3 308.8C2192.7 206 2207.3 103 2214.7 51.5L2222 0L3840 0L3840 51.5C3840 103 3840 206 3840 308.8C3840 411.7 3840 514.3 3840 617.2C3840 720 3840 823 3840 925.8C3840 1028.7 3840 1131.3 3840 1234.2C3840 1337 3840 1440 3840 1542.8C3840 1645.7 3840 1748.3 3840 1851.2C3840 1954 3840 2057 3840 2108.5L3840 2160Z" fill="#47b5ff"></path><path d="M2589 2160L2590.5 2108.5C2592 2057 2595 1954 2556.5 1851.2C2518 1748.3 2438 1645.7 2459 1542.8C2480 1440 2602 1337 2649.5 1234.2C2697 1131.3 2670 1028.7 2629.2 925.8C2588.3 823 2533.7 720 2536.5 617.2C2539.3 514.3 2599.7 411.7 2646.7 308.8C2693.7 206 2727.3 103 2744.2 51.5L2761 0L3840 0L3840 51.5C3840 103 3840 206 3840 308.8C3840 411.7 3840 514.3 3840 617.2C3840 720 3840 823 3840 925.8C3840 1028.7 3840 1131.3 3840 1234.2C3840 1337 3840 1440 3840 1542.8C3840 1645.7 3840 1748.3 3840 1851.2C3840 1954 3840 2057 3840 2108.5L3840 2160Z" fill="#27a2fa"></path><path d="M2938 2160L2963.3 2108.5C2988.7 2057 3039.3 1954 3020.7 1851.2C3002 1748.3 2914 1645.7 2910 1542.8C2906 1440 2986 1337 2974.8 1234.2C2963.7 1131.3 2861.3 1028.7 2800.5 925.8C2739.7 823 2720.3 720 2710.8 617.2C2701.3 514.3 2701.7 411.7 2745.7 308.8C2789.7 206 2877.3 103 2921.2 51.5L2965 0L3840 0L3840 51.5C3840 103 3840 206 3840 308.8C3840 411.7 3840 514.3 3840 617.2C3840 720 3840 823 3840 925.8C3840 1028.7 3840 1131.3 3840 1234.2C3840 1337 3840 1440 3840 1542.8C3840 1645.7 3840 1748.3 3840 1851.2C3840 1954 3840 2057 3840 2108.5L3840 2160Z" fill="#008ef3"></path><path d="M2989 2160L3037.2 2108.5C3085.3 2057 3181.7 1954 3228.5 1851.2C3275.3 1748.3 3272.7 1645.7 3223.5 1542.8C3174.3 1440 3078.7 1337 3043.5 1234.2C3008.3 1131.3 3033.7 1028.7 3081.5 925.8C3129.3 823 3199.7 720 3235.5 617.2C3271.3 514.3 3272.7 411.7 3224.2 308.8C3175.7 206 3077.3 103 3028.2 51.5L2979 0L3840 0L3840 51.5C3840 103 3840 206 3840 308.8C3840 411.7 3840 514.3 3840 617.2C3840 720 3840 823 3840 925.8C3840 1028.7 3840 1131.3 3840 1234.2C3840 1337 3840 1440 3840 1542.8C3840 1645.7 3840 1748.3 3840 1851.2C3840 1954 3840 2057 3840 2108.5L3840 2160Z" fill="#0079ea"></path><path d="M3583 2160L3561 2108.5C3539 2057 3495 1954 3458.7 1851.2C3422.3 1748.3 3393.7 1645.7 3405.7 1542.8C3417.7 1440 3470.3 1337 3489.5 1234.2C3508.7 1131.3 3494.3 1028.7 3458.2 925.8C3422 823 3364 720 3339 617.2C3314 514.3 3322 411.7 3368.7 308.8C3415.3 206 3500.7 103 3543.3 51.5L3586 0L3840 0L3840 51.5C3840 103 3840 206 3840 308.8C3840 411.7 3840 514.3 3840 617.2C3840 720 3840 823 3840 925.8C3840 1028.7 3840 1131.3 3840 1234.2C3840 1337 3840 1440 3840 1542.8C3840 1645.7 3840 1748.3 3840 1851.2C3840 1954 3840 2057 3840 2108.5L3840 2160Z" fill="#1363df"></path></svg>