<svg id="visual" viewBox="0 0 3840 2160" width="3840" height="2160" xmlns="http://www.w3.org/2000/svg" xmlns:xlink="http://www.w3.org/1999/xlink" version="1.1"><rect x="0" y="0" width="3840" height="2160" fill="#06283D"></rect><path d="M2453 2160L2410.7 2108.5C2368.3 2057 2283.7 1954 2214.8 1851.2C2146 1748.3 2093 1645.7 2091.7 1542.8C2090.3 1440 2140.7 1337 2204.5 1234.2C2268.3 1131.3 2345.7 1028.7 2356 925.8C2366.3 823 2309.7 720 2238.8 617.2C2168 514.3 2083 411.7 2117.3 308.8C2151.7 206 2305.3 103 2382.2 51.5L2459 0L3840 0L3840 51.5C3840 103 3840 206 3840 308.8C3840 411.7 3840 514.3 3840 617.2C3840 720 3840 823 3840 925.8C3840 1028.7 3840 1131.3 3840 1234.2C3840 1337 3840 1440 3840 1542.8C3840 1645.7 3840 1748.3 3840 1851.2C3840 1954 3840 2057 3840 2108.5L3840 2160Z" fill="#47b5ff"></path><path d="M2717 2160L2725.3 2108.5C2733.7 2057 2750.3 1954 2766 1851.2C2781.7 1748.3 2796.3 1645.7 2737.8 1542.8C2679.3 1440 2547.7 1337 2499.2 1234.2C2450.7 1131.3 2485.3 1028.7 2472.5 925.8C2459.7 823 2399.3 720 2433.3 617.2C2467.3 514.3 2595.7 411.7 2671.8 308.8C2748 206 2772 103 2784 51.5L2796 0L3840 0L3840 51.5C3840 103 3840 206 3840 308.8C3840 411.7 3840 514.3 3840 617.2C3840 720 3840 823 3840 925.8C3840 1028.7 3840 1131.3 3840 1234.2C3840 1337 3840 1440 3840 1542.8C3840 1645.7 3840 1748.3 3840 1851.2C3840 1954 3840 2057 3840 2108.5L3840 2160Z" fill="#27a2fa"></path><path d="M3033 2160L2992.2 2108.5C2951.3 2057 2869.7 1954 2817 1851.2C2764.3 1748.3 2740.7 1645.7 2724.8 1542.8C2709 1440 2701 1337 2728.5 1234.2C2756 1131.3 2819 1028.7 2815.3 925.8C2811.7 823 2741.3 720 2745.7 617.2C2750 514.3 2829 411.7 2856.5 308.8C2884 206 2860 103 2848 51.5L2836 0L3840 0L3840 51.5C3840 103 3840 206 3840 308.8C3840 411.7 3840 514.3 3840 617.2C3840 720 3840 823 3840 925.8C3840 1028.7 3840 1131.3 3840 1234.2C3840 1337 3840 1440 3840 1542.8C3840 1645.7 3840 1748.3 3840 1851.2C3840 1954 3840 2057 3840 2108.5L3840 2160Z" fill="#008ef3"></path><path d="M3226 2160L3243.2 2108.5C3260.3 2057 3294.7 1954 3305.3 1851.2C3316 1748.3 3303 1645.7 3275.8 1542.8C3248.7 1440 3207.3 1337 3201.7 1234.2C3196 1131.3 3226 1028.7 3223.7 925.8C3221.3 823 3186.7 720 3160.7 617.2C3134.7 514.3 3117.3 411.7 3127.7 308.8C3138 206 3176 103 3195 51.5L3214 0L3840 0L3840 51.5C3840 103 3840 206 3840 308.8C3840 411.7 3840 514.3 3840 617.2C3840 720 3840 823 3840 925.8C3840 1028.7 3840 1131.3 3840 1234.2C3840 1337 3840 1440 3840 1542.8C3840 1645.7 3840 1748.3 3840 1851.2C3840 1954 3840 2057 3840 2108.5L3840 2160Z" fill="#0079ea"></path><path d="M3571 2160L3533.5 2108.5C3496 2057 3421 1954 3410 1851.2C3399 1748.3 3452 1645.7 3473.8 1542.8C3495.7 1440 3486.3 1337 3463.8 1234.2C3441.3 1131.3 3405.7 1028.7 3400.7 925.8C3395.7 823 3421.3 720 3419.2 617.2C3417 514.3 3387 411.7 3400.7 308.8C3414.3 206 3471.7 103 3500.3 51.5L3529 0L3840 0L3840 51.5C3840 103 3840 206 3840 308.8C3840 411.7 3840 514.3 3840 617.2C3840 720 3840 823 3840 925.8C3840 1028.7 3840 1131.3 3840 1234.2C3840 1337 3840 1440 3840 1542.8C3840 1645.7 3840 1748.3 3840 1851.2C3840 1954 3840 2057 3840 2108.5L3840 2160Z" fill="#1363df"></path></svg>