<svg id="visual" viewBox="0 0 3840 2160" width="3840" height="2160" xmlns="http://www.w3.org/2000/svg" xmlns:xlink="http://www.w3.org/1999/xlink" version="1.1"><rect x="0" y="0" width="3840" height="2160" fill="#06283D"></rect><path d="M2558 2160L2483.7 2108.5C2409.3 2057 2260.7 1954 2192 1851.2C2123.3 1748.3 2134.7 1645.7 2172.8 1542.8C2211 1440 2276 1337 2327.7 1234.2C2379.3 1131.3 2417.7 1028.7 2418.2 925.8C2418.7 823 2381.3 720 2345.7 617.2C2310 514.3 2276 411.7 2262.2 308.8C2248.3 206 2254.7 103 2257.8 51.5L2261 0L3840 0L3840 51.5C3840 103 3840 206 3840 308.8C3840 411.7 3840 514.3 3840 617.2C3840 720 3840 823 3840 925.8C3840 1028.7 3840 1131.3 3840 1234.2C3840 1337 3840 1440 3840 1542.8C3840 1645.7 3840 1748.3 3840 1851.2C3840 1954 3840 2057 3840 2108.5L3840 2160Z" fill="#47b5ff"></path><path d="M2338 2160L2408.7 2108.5C2479.3 2057 2620.7 1954 2628.2 1851.2C2635.7 1748.3 2509.3 1645.7 2512.5 1542.8C2515.7 1440 2648.3 1337 2716 1234.2C2783.7 1131.3 2786.3 1028.7 2725.3 925.8C2664.3 823 2539.7 720 2523.5 617.2C2507.3 514.3 2599.7 411.7 2660.3 308.8C2721 206 2750 103 2764.5 51.5L2779 0L3840 0L3840 51.5C3840 103 3840 206 3840 308.8C3840 411.7 3840 514.3 3840 617.2C3840 720 3840 823 3840 925.8C3840 1028.7 3840 1131.3 3840 1234.2C3840 1337 3840 1440 3840 1542.8C3840 1645.7 3840 1748.3 3840 1851.2C3840 1954 3840 2057 3840 2108.5L3840 2160Z" fill="#27a2fa"></path><path d="M2696 2160L2688.5 2108.5C2681 2057 2666 1954 2720.7 1851.2C2775.3 1748.3 2899.7 1645.7 2968.8 1542.8C3038 1440 3052 1337 3029 1234.2C3006 1131.3 2946 1028.7 2894.5 925.8C2843 823 2800 720 2765.5 617.2C2731 514.3 2705 411.7 2709 308.8C2713 206 2747 103 2764 51.5L2781 0L3840 0L3840 51.5C3840 103 3840 206 3840 308.8C3840 411.7 3840 514.3 3840 617.2C3840 720 3840 823 3840 925.8C3840 1028.7 3840 1131.3 3840 1234.2C3840 1337 3840 1440 3840 1542.8C3840 1645.7 3840 1748.3 3840 1851.2C3840 1954 3840 2057 3840 2108.5L3840 2160Z" fill="#008ef3"></path><path d="M3294 2160L3277.8 2108.5C3261.7 2057 3229.3 1954 3202 1851.2C3174.7 1748.3 3152.3 1645.7 3162.2 1542.8C3172 1440 3214 1337 3189 1234.2C3164 1131.3 3072 1028.7 3083.8 925.8C3095.7 823 3211.3 720 3239.5 617.2C3267.7 514.3 3208.3 411.7 3162.3 308.8C3116.3 206 3083.7 103 3067.3 51.5L3051 0L3840 0L3840 51.5C3840 103 3840 206 3840 308.8C3840 411.7 3840 514.3 3840 617.2C3840 720 3840 823 3840 925.8C3840 1028.7 3840 1131.3 3840 1234.2C3840 1337 3840 1440 3840 1542.8C3840 1645.7 3840 1748.3 3840 1851.2C3840 1954 3840 2057 3840 2108.5L3840 2160Z" fill="#0079ea"></path><path d="M3332 2160L3345.3 2108.5C3358.7 2057 3385.3 1954 3386.5 1851.2C3387.7 1748.3 3363.3 1645.7 3387.8 1542.8C3412.3 1440 3485.7 1337 3496.3 1234.2C3507 1131.3 3455 1028.7 3436.2 925.8C3417.3 823 3431.7 720 3431.3 617.2C3431 514.3 3416 411.7 3427.2 308.8C3438.3 206 3475.7 103 3494.3 51.5L3513 0L3840 0L3840 51.5C3840 103 3840 206 3840 308.8C3840 411.7 3840 514.3 3840 617.2C3840 720 3840 823 3840 925.8C3840 1028.7 3840 1131.3 3840 1234.2C3840 1337 3840 1440 3840 1542.8C3840 1645.7 3840 1748.3 3840 1851.2C3840 1954 3840 2057 3840 2108.5L3840 2160Z" fill="#1363df"></path></svg>