<svg id="visual" viewBox="0 0 3840 2160" width="3840" height="2160" xmlns="http://www.w3.org/2000/svg" xmlns:xlink="http://www.w3.org/1999/xlink" version="1.1"><rect x="0" y="0" width="3840" height="2160" fill="#06283D"></rect><path d="M2494 2160L2414 2108.5C2334 2057 2174 1954 2125.8 1851.2C2077.7 1748.3 2141.3 1645.7 2216 1542.8C2290.7 1440 2376.3 1337 2426.5 1234.2C2476.7 1131.3 2491.3 1028.7 2451.2 925.8C2411 823 2316 720 2244.8 617.2C2173.7 514.3 2126.3 411.7 2092.7 308.8C2059 206 2039 103 2029 51.5L2019 0L3840 0L3840 51.5C3840 103 3840 206 3840 308.8C3840 411.7 3840 514.3 3840 617.2C3840 720 3840 823 3840 925.8C3840 1028.7 3840 1131.3 3840 1234.2C3840 1337 3840 1440 3840 1542.8C3840 1645.7 3840 1748.3 3840 1851.2C3840 1954 3840 2057 3840 2108.5L3840 2160Z" fill="#47b5ff"></path><path d="M2846 2160L2767.5 2108.5C2689 2057 2532 1954 2497.7 1851.2C2463.3 1748.3 2551.7 1645.7 2570.8 1542.8C2590 1440 2540 1337 2525.5 1234.2C2511 1131.3 2532 1028.7 2560.7 925.8C2589.3 823 2625.7 720 2609.2 617.2C2592.7 514.3 2523.3 411.7 2524 308.8C2524.7 206 2595.3 103 2630.7 51.5L2666 0L3840 0L3840 51.5C3840 103 3840 206 3840 308.8C3840 411.7 3840 514.3 3840 617.2C3840 720 3840 823 3840 925.8C3840 1028.7 3840 1131.3 3840 1234.2C3840 1337 3840 1440 3840 1542.8C3840 1645.7 3840 1748.3 3840 1851.2C3840 1954 3840 2057 3840 2108.5L3840 2160Z" fill="#27a2fa"></path><path d="M3047 2160L3025.7 2108.5C3004.3 2057 2961.7 1954 2939.8 1851.2C2918 1748.3 2917 1645.7 2909 1542.8C2901 1440 2886 1337 2910.2 1234.2C2934.3 1131.3 2997.7 1028.7 2994.5 925.8C2991.3 823 2921.7 720 2858.2 617.2C2794.7 514.3 2737.3 411.7 2710.2 308.8C2683 206 2686 103 2687.5 51.5L2689 0L3840 0L3840 51.5C3840 103 3840 206 3840 308.8C3840 411.7 3840 514.3 3840 617.2C3840 720 3840 823 3840 925.8C3840 1028.7 3840 1131.3 3840 1234.2C3840 1337 3840 1440 3840 1542.8C3840 1645.7 3840 1748.3 3840 1851.2C3840 1954 3840 2057 3840 2108.5L3840 2160Z" fill="#008ef3"></path><path d="M2991 2160L3045.7 2108.5C3100.3 2057 3209.7 1954 3228.2 1851.2C3246.7 1748.3 3174.3 1645.7 3164.7 1542.8C3155 1440 3208 1337 3199.7 1234.2C3191.3 1131.3 3121.7 1028.7 3126.7 925.8C3131.7 823 3211.3 720 3254.7 617.2C3298 514.3 3305 411.7 3282.3 308.8C3259.7 206 3207.3 103 3181.2 51.5L3155 0L3840 0L3840 51.5C3840 103 3840 206 3840 308.8C3840 411.7 3840 514.3 3840 617.2C3840 720 3840 823 3840 925.8C3840 1028.7 3840 1131.3 3840 1234.2C3840 1337 3840 1440 3840 1542.8C3840 1645.7 3840 1748.3 3840 1851.2C3840 1954 3840 2057 3840 2108.5L3840 2160Z" fill="#0079ea"></path><path d="M3528 2160L3528.8 2108.5C3529.7 2057 3531.3 1954 3534.7 1851.2C3538 1748.3 3543 1645.7 3520.2 1542.8C3497.3 1440 3446.7 1337 3414.7 1234.2C3382.7 1131.3 3369.3 1028.7 3403.5 925.8C3437.7 823 3519.3 720 3540.2 617.2C3561 514.3 3521 411.7 3520.5 308.8C3520 206 3559 103 3578.5 51.5L3598 0L3840 0L3840 51.5C3840 103 3840 206 3840 308.8C3840 411.7 3840 514.3 3840 617.2C3840 720 3840 823 3840 925.8C3840 1028.7 3840 1131.3 3840 1234.2C3840 1337 3840 1440 3840 1542.8C3840 1645.7 3840 1748.3 3840 1851.2C3840 1954 3840 2057 3840 2108.5L3840 2160Z" fill="#1363df"></path></svg>