<svg id="visual" viewBox="0 0 3840 2160" width="3840" height="2160" xmlns="http://www.w3.org/2000/svg" xmlns:xlink="http://www.w3.org/1999/xlink" version="1.1"><rect x="0" y="0" width="3840" height="2160" fill="#06283D"></rect><path d="M2334 2160L2378.5 2108.5C2423 2057 2512 1954 2503.8 1851.2C2495.7 1748.3 2390.3 1645.7 2295.8 1542.8C2201.3 1440 2117.7 1337 2077.7 1234.2C2037.7 1131.3 2041.3 1028.7 2059.7 925.8C2078 823 2111 720 2151.3 617.2C2191.7 514.3 2239.3 411.7 2266.8 308.8C2294.3 206 2301.7 103 2305.3 51.5L2309 0L3840 0L3840 51.5C3840 103 3840 206 3840 308.8C3840 411.7 3840 514.3 3840 617.2C3840 720 3840 823 3840 925.8C3840 1028.7 3840 1131.3 3840 1234.2C3840 1337 3840 1440 3840 1542.8C3840 1645.7 3840 1748.3 3840 1851.2C3840 1954 3840 2057 3840 2108.5L3840 2160Z" fill="#47b5ff"></path><path d="M2513 2160L2481.8 2108.5C2450.7 2057 2388.3 1954 2381.2 1851.2C2374 1748.3 2422 1645.7 2443.7 1542.8C2465.3 1440 2460.7 1337 2438 1234.2C2415.3 1131.3 2374.7 1028.7 2359.5 925.8C2344.3 823 2354.7 720 2407.7 617.2C2460.7 514.3 2556.3 411.7 2632.8 308.8C2709.3 206 2766.7 103 2795.3 51.5L2824 0L3840 0L3840 51.5C3840 103 3840 206 3840 308.8C3840 411.7 3840 514.3 3840 617.2C3840 720 3840 823 3840 925.8C3840 1028.7 3840 1131.3 3840 1234.2C3840 1337 3840 1440 3840 1542.8C3840 1645.7 3840 1748.3 3840 1851.2C3840 1954 3840 2057 3840 2108.5L3840 2160Z" fill="#27a2fa"></path><path d="M2931 2160L2918.8 2108.5C2906.7 2057 2882.3 1954 2902.7 1851.2C2923 1748.3 2988 1645.7 3027 1542.8C3066 1440 3079 1337 3024.3 1234.2C2969.7 1131.3 2847.3 1028.7 2800.7 925.8C2754 823 2783 720 2824 617.2C2865 514.3 2918 411.7 2936.2 308.8C2954.3 206 2937.7 103 2929.3 51.5L2921 0L3840 0L3840 51.5C3840 103 3840 206 3840 308.8C3840 411.7 3840 514.3 3840 617.2C3840 720 3840 823 3840 925.8C3840 1028.7 3840 1131.3 3840 1234.2C3840 1337 3840 1440 3840 1542.8C3840 1645.7 3840 1748.3 3840 1851.2C3840 1954 3840 2057 3840 2108.5L3840 2160Z" fill="#008ef3"></path><path d="M3315 2160L3315.7 2108.5C3316.3 2057 3317.7 1954 3318 1851.2C3318.3 1748.3 3317.7 1645.7 3282.5 1542.8C3247.3 1440 3177.7 1337 3147 1234.2C3116.3 1131.3 3124.7 1028.7 3127.2 925.8C3129.7 823 3126.3 720 3123.5 617.2C3120.7 514.3 3118.3 411.7 3142.2 308.8C3166 206 3216 103 3241 51.5L3266 0L3840 0L3840 51.5C3840 103 3840 206 3840 308.8C3840 411.7 3840 514.3 3840 617.2C3840 720 3840 823 3840 925.8C3840 1028.7 3840 1131.3 3840 1234.2C3840 1337 3840 1440 3840 1542.8C3840 1645.7 3840 1748.3 3840 1851.2C3840 1954 3840 2057 3840 2108.5L3840 2160Z" fill="#0079ea"></path><path d="M3557 2160L3535.7 2108.5C3514.3 2057 3471.7 1954 3477.2 1851.2C3482.7 1748.3 3536.3 1645.7 3559.8 1542.8C3583.3 1440 3576.7 1337 3535.8 1234.2C3495 1131.3 3420 1028.7 3403.5 925.8C3387 823 3429 720 3457 617.2C3485 514.3 3499 411.7 3513.8 308.8C3528.7 206 3544.3 103 3552.2 51.5L3560 0L3840 0L3840 51.5C3840 103 3840 206 3840 308.8C3840 411.7 3840 514.3 3840 617.2C3840 720 3840 823 3840 925.8C3840 1028.7 3840 1131.3 3840 1234.2C3840 1337 3840 1440 3840 1542.8C3840 1645.7 3840 1748.3 3840 1851.2C3840 1954 3840 2057 3840 2108.5L3840 2160Z" fill="#1363df"></path></svg>