<svg id="visual" viewBox="0 0 3840 2160" width="3840" height="2160" xmlns="http://www.w3.org/2000/svg" xmlns:xlink="http://www.w3.org/1999/xlink" version="1.1"><rect x="0" y="0" width="3840" height="2160" fill="#06283D"></rect><path d="M2387 2160L2384.2 2108.5C2381.3 2057 2375.7 1954 2402.3 1851.2C2429 1748.3 2488 1645.7 2464.5 1542.8C2441 1440 2335 1337 2341 1234.2C2347 1131.3 2465 1028.7 2452.5 925.8C2440 823 2297 720 2284.2 617.2C2271.3 514.3 2388.7 411.7 2390.2 308.8C2391.7 206 2277.3 103 2220.2 51.5L2163 0L3840 0L3840 51.5C3840 103 3840 206 3840 308.8C3840 411.7 3840 514.3 3840 617.2C3840 720 3840 823 3840 925.8C3840 1028.7 3840 1131.3 3840 1234.2C3840 1337 3840 1440 3840 1542.8C3840 1645.7 3840 1748.3 3840 1851.2C3840 1954 3840 2057 3840 2108.5L3840 2160Z" fill="#47b5ff"></path><path d="M2823 2160L2816.5 2108.5C2810 2057 2797 1954 2754 1851.2C2711 1748.3 2638 1645.7 2641.2 1542.8C2644.3 1440 2723.7 1337 2752.3 1234.2C2781 1131.3 2759 1028.7 2751.2 925.8C2743.3 823 2749.7 720 2761.8 617.2C2774 514.3 2792 411.7 2762.3 308.8C2732.7 206 2655.3 103 2616.7 51.5L2578 0L3840 0L3840 51.5C3840 103 3840 206 3840 308.8C3840 411.7 3840 514.3 3840 617.2C3840 720 3840 823 3840 925.8C3840 1028.7 3840 1131.3 3840 1234.2C3840 1337 3840 1440 3840 1542.8C3840 1645.7 3840 1748.3 3840 1851.2C3840 1954 3840 2057 3840 2108.5L3840 2160Z" fill="#27a2fa"></path><path d="M2865 2160L2888 2108.5C2911 2057 2957 1954 2927 1851.2C2897 1748.3 2791 1645.7 2800.7 1542.8C2810.3 1440 2935.7 1337 3001.3 1234.2C3067 1131.3 3073 1028.7 3032.5 925.8C2992 823 2905 720 2858 617.2C2811 514.3 2804 411.7 2806 308.8C2808 206 2819 103 2824.5 51.5L2830 0L3840 0L3840 51.5C3840 103 3840 206 3840 308.8C3840 411.7 3840 514.3 3840 617.2C3840 720 3840 823 3840 925.8C3840 1028.7 3840 1131.3 3840 1234.2C3840 1337 3840 1440 3840 1542.8C3840 1645.7 3840 1748.3 3840 1851.2C3840 1954 3840 2057 3840 2108.5L3840 2160Z" fill="#008ef3"></path><path d="M3063 2160L3075.2 2108.5C3087.3 2057 3111.7 1954 3125.2 1851.2C3138.7 1748.3 3141.3 1645.7 3177.7 1542.8C3214 1440 3284 1337 3290.3 1234.2C3296.7 1131.3 3239.3 1028.7 3229.5 925.8C3219.7 823 3257.3 720 3262.7 617.2C3268 514.3 3241 411.7 3218.7 308.8C3196.3 206 3178.7 103 3169.8 51.5L3161 0L3840 0L3840 51.5C3840 103 3840 206 3840 308.8C3840 411.7 3840 514.3 3840 617.2C3840 720 3840 823 3840 925.8C3840 1028.7 3840 1131.3 3840 1234.2C3840 1337 3840 1440 3840 1542.8C3840 1645.7 3840 1748.3 3840 1851.2C3840 1954 3840 2057 3840 2108.5L3840 2160Z" fill="#0079ea"></path><path d="M3363 2160L3358 2108.5C3353 2057 3343 1954 3368.5 1851.2C3394 1748.3 3455 1645.7 3474 1542.8C3493 1440 3470 1337 3479 1234.2C3488 1131.3 3529 1028.7 3521.3 925.8C3513.7 823 3457.3 720 3416.5 617.2C3375.7 514.3 3350.3 411.7 3334.2 308.8C3318 206 3311 103 3307.5 51.5L3304 0L3840 0L3840 51.5C3840 103 3840 206 3840 308.8C3840 411.7 3840 514.3 3840 617.2C3840 720 3840 823 3840 925.8C3840 1028.7 3840 1131.3 3840 1234.2C3840 1337 3840 1440 3840 1542.8C3840 1645.7 3840 1748.3 3840 1851.2C3840 1954 3840 2057 3840 2108.5L3840 2160Z" fill="#1363df"></path></svg>