<svg id="visual" viewBox="0 0 3840 2160" width="3840" height="2160" xmlns="http://www.w3.org/2000/svg" xmlns:xlink="http://www.w3.org/1999/xlink" version="1.1"><rect x="0" y="0" width="3840" height="2160" fill="#06283D"></rect><path d="M2149 2160L2206.2 2108.5C2263.3 2057 2377.7 1954 2388 1851.2C2398.3 1748.3 2304.7 1645.7 2243.2 1542.8C2181.7 1440 2152.3 1337 2139.3 1234.2C2126.3 1131.3 2129.7 1028.7 2201.8 925.8C2274 823 2415 720 2466.3 617.2C2517.7 514.3 2479.3 411.7 2397.2 308.8C2315 206 2189 103 2126 51.5L2063 0L3840 0L3840 51.5C3840 103 3840 206 3840 308.8C3840 411.7 3840 514.3 3840 617.2C3840 720 3840 823 3840 925.8C3840 1028.7 3840 1131.3 3840 1234.2C3840 1337 3840 1440 3840 1542.8C3840 1645.7 3840 1748.3 3840 1851.2C3840 1954 3840 2057 3840 2108.5L3840 2160Z" fill="#47b5ff"></path><path d="M2637 2160L2606 2108.5C2575 2057 2513 1954 2509.3 1851.2C2505.7 1748.3 2560.3 1645.7 2618.2 1542.8C2676 1440 2737 1337 2753.2 1234.2C2769.3 1131.3 2740.7 1028.7 2676.2 925.8C2611.7 823 2511.3 720 2470.8 617.2C2430.3 514.3 2449.7 411.7 2465 308.8C2480.3 206 2491.7 103 2497.3 51.5L2503 0L3840 0L3840 51.5C3840 103 3840 206 3840 308.8C3840 411.7 3840 514.3 3840 617.2C3840 720 3840 823 3840 925.8C3840 1028.7 3840 1131.3 3840 1234.2C3840 1337 3840 1440 3840 1542.8C3840 1645.7 3840 1748.3 3840 1851.2C3840 1954 3840 2057 3840 2108.5L3840 2160Z" fill="#27a2fa"></path><path d="M2809 2160L2784.2 2108.5C2759.3 2057 2709.7 1954 2707.3 1851.2C2705 1748.3 2750 1645.7 2765.7 1542.8C2781.3 1440 2767.7 1337 2786.2 1234.2C2804.7 1131.3 2855.3 1028.7 2852.7 925.8C2850 823 2794 720 2785.8 617.2C2777.7 514.3 2817.3 411.7 2860.8 308.8C2904.3 206 2951.7 103 2975.3 51.5L2999 0L3840 0L3840 51.5C3840 103 3840 206 3840 308.8C3840 411.7 3840 514.3 3840 617.2C3840 720 3840 823 3840 925.8C3840 1028.7 3840 1131.3 3840 1234.2C3840 1337 3840 1440 3840 1542.8C3840 1645.7 3840 1748.3 3840 1851.2C3840 1954 3840 2057 3840 2108.5L3840 2160Z" fill="#008ef3"></path><path d="M3247 2160L3215 2108.5C3183 2057 3119 1954 3125.8 1851.2C3132.7 1748.3 3210.3 1645.7 3260.8 1542.8C3311.3 1440 3334.7 1337 3307 1234.2C3279.3 1131.3 3200.7 1028.7 3156.2 925.8C3111.7 823 3101.3 720 3087.8 617.2C3074.3 514.3 3057.7 411.7 3056.3 308.8C3055 206 3069 103 3076 51.5L3083 0L3840 0L3840 51.5C3840 103 3840 206 3840 308.8C3840 411.7 3840 514.3 3840 617.2C3840 720 3840 823 3840 925.8C3840 1028.7 3840 1131.3 3840 1234.2C3840 1337 3840 1440 3840 1542.8C3840 1645.7 3840 1748.3 3840 1851.2C3840 1954 3840 2057 3840 2108.5L3840 2160Z" fill="#0079ea"></path><path d="M3378 2160L3383.8 2108.5C3389.7 2057 3401.3 1954 3438.5 1851.2C3475.7 1748.3 3538.3 1645.7 3524.7 1542.8C3511 1440 3421 1337 3374.3 1234.2C3327.7 1131.3 3324.3 1028.7 3322 925.8C3319.7 823 3318.3 720 3364.2 617.2C3410 514.3 3503 411.7 3521.7 308.8C3540.3 206 3484.7 103 3456.8 51.5L3429 0L3840 0L3840 51.5C3840 103 3840 206 3840 308.8C3840 411.7 3840 514.3 3840 617.2C3840 720 3840 823 3840 925.8C3840 1028.7 3840 1131.3 3840 1234.2C3840 1337 3840 1440 3840 1542.8C3840 1645.7 3840 1748.3 3840 1851.2C3840 1954 3840 2057 3840 2108.5L3840 2160Z" fill="#1363df"></path></svg>