<svg id="visual" viewBox="0 0 3840 2160" width="3840" height="2160" xmlns="http://www.w3.org/2000/svg" xmlns:xlink="http://www.w3.org/1999/xlink" version="1.1"><rect x="0" y="0" width="3840" height="2160" fill="#06283D"></rect><path d="M2206 2160L2215 2108.5C2224 2057 2242 1954 2233 1851.2C2224 1748.3 2188 1645.7 2161 1542.8C2134 1440 2116 1337 2117.5 1234.2C2119 1131.3 2140 1028.7 2222.7 925.8C2305.3 823 2449.7 720 2521.8 617.2C2594 514.3 2594 411.7 2559.3 308.8C2524.7 206 2455.3 103 2420.7 51.5L2386 0L3840 0L3840 51.5C3840 103 3840 206 3840 308.8C3840 411.7 3840 514.3 3840 617.2C3840 720 3840 823 3840 925.8C3840 1028.7 3840 1131.3 3840 1234.2C3840 1337 3840 1440 3840 1542.8C3840 1645.7 3840 1748.3 3840 1851.2C3840 1954 3840 2057 3840 2108.5L3840 2160Z" fill="#47b5ff"></path><path d="M2658 2160L2655.2 2108.5C2652.3 2057 2646.7 1954 2613 1851.2C2579.3 1748.3 2517.7 1645.7 2533.3 1542.8C2549 1440 2642 1337 2639.3 1234.2C2636.7 1131.3 2538.3 1028.7 2473.2 925.8C2408 823 2376 720 2445.2 617.2C2514.3 514.3 2684.7 411.7 2685.5 308.8C2686.3 206 2517.7 103 2433.3 51.5L2349 0L3840 0L3840 51.5C3840 103 3840 206 3840 308.8C3840 411.7 3840 514.3 3840 617.2C3840 720 3840 823 3840 925.8C3840 1028.7 3840 1131.3 3840 1234.2C3840 1337 3840 1440 3840 1542.8C3840 1645.7 3840 1748.3 3840 1851.2C3840 1954 3840 2057 3840 2108.5L3840 2160Z" fill="#27a2fa"></path><path d="M3007 2160L2954.2 2108.5C2901.3 2057 2795.7 1954 2779.3 1851.2C2763 1748.3 2836 1645.7 2830 1542.8C2824 1440 2739 1337 2704.2 1234.2C2669.3 1131.3 2684.7 1028.7 2713.3 925.8C2742 823 2784 720 2819.7 617.2C2855.3 514.3 2884.7 411.7 2861.5 308.8C2838.3 206 2762.7 103 2724.8 51.5L2687 0L3840 0L3840 51.5C3840 103 3840 206 3840 308.8C3840 411.7 3840 514.3 3840 617.2C3840 720 3840 823 3840 925.8C3840 1028.7 3840 1131.3 3840 1234.2C3840 1337 3840 1440 3840 1542.8C3840 1645.7 3840 1748.3 3840 1851.2C3840 1954 3840 2057 3840 2108.5L3840 2160Z" fill="#008ef3"></path><path d="M3086 2160L3070.3 2108.5C3054.7 2057 3023.3 1954 3061.5 1851.2C3099.7 1748.3 3207.3 1645.7 3240 1542.8C3272.7 1440 3230.3 1337 3199.8 1234.2C3169.3 1131.3 3150.7 1028.7 3148.2 925.8C3145.7 823 3159.3 720 3134.2 617.2C3109 514.3 3045 411.7 3053.2 308.8C3061.3 206 3141.7 103 3181.8 51.5L3222 0L3840 0L3840 51.5C3840 103 3840 206 3840 308.8C3840 411.7 3840 514.3 3840 617.2C3840 720 3840 823 3840 925.8C3840 1028.7 3840 1131.3 3840 1234.2C3840 1337 3840 1440 3840 1542.8C3840 1645.7 3840 1748.3 3840 1851.2C3840 1954 3840 2057 3840 2108.5L3840 2160Z" fill="#0079ea"></path><path d="M3354 2160L3384 2108.5C3414 2057 3474 1954 3515.7 1851.2C3557.3 1748.3 3580.7 1645.7 3557 1542.8C3533.3 1440 3462.7 1337 3460.3 1234.2C3458 1131.3 3524 1028.7 3532 925.8C3540 823 3490 720 3489.3 617.2C3488.7 514.3 3537.3 411.7 3519 308.8C3500.7 206 3415.3 103 3372.7 51.5L3330 0L3840 0L3840 51.5C3840 103 3840 206 3840 308.8C3840 411.7 3840 514.3 3840 617.2C3840 720 3840 823 3840 925.8C3840 1028.7 3840 1131.3 3840 1234.2C3840 1337 3840 1440 3840 1542.8C3840 1645.7 3840 1748.3 3840 1851.2C3840 1954 3840 2057 3840 2108.5L3840 2160Z" fill="#1363df"></path></svg>