<svg id="visual" viewBox="0 0 3840 2160" width="3840" height="2160" xmlns="http://www.w3.org/2000/svg" xmlns:xlink="http://www.w3.org/1999/xlink" version="1.1"><rect x="0" y="0" width="3840" height="2160" fill="#06283D"></rect><path d="M2277 2160L2232.2 2108.5C2187.3 2057 2097.7 1954 2112.5 1851.2C2127.3 1748.3 2246.7 1645.7 2324.2 1542.8C2401.7 1440 2437.3 1337 2432.8 1234.2C2428.3 1131.3 2383.7 1028.7 2398.5 925.8C2413.3 823 2487.7 720 2526.8 617.2C2566 514.3 2570 411.7 2493.8 308.8C2417.7 206 2261.3 103 2183.2 51.5L2105 0L3840 0L3840 51.5C3840 103 3840 206 3840 308.8C3840 411.7 3840 514.3 3840 617.2C3840 720 3840 823 3840 925.8C3840 1028.7 3840 1131.3 3840 1234.2C3840 1337 3840 1440 3840 1542.8C3840 1645.7 3840 1748.3 3840 1851.2C3840 1954 3840 2057 3840 2108.5L3840 2160Z" fill="#47b5ff"></path><path d="M2793 2160L2723.7 2108.5C2654.3 2057 2515.7 1954 2452.5 1851.2C2389.3 1748.3 2401.7 1645.7 2477 1542.8C2552.3 1440 2690.7 1337 2749 1234.2C2807.3 1131.3 2785.7 1028.7 2752.3 925.8C2719 823 2674 720 2601.7 617.2C2529.3 514.3 2429.7 411.7 2423.3 308.8C2417 206 2504 103 2547.5 51.5L2591 0L3840 0L3840 51.5C3840 103 3840 206 3840 308.8C3840 411.7 3840 514.3 3840 617.2C3840 720 3840 823 3840 925.8C3840 1028.7 3840 1131.3 3840 1234.2C3840 1337 3840 1440 3840 1542.8C3840 1645.7 3840 1748.3 3840 1851.2C3840 1954 3840 2057 3840 2108.5L3840 2160Z" fill="#27a2fa"></path><path d="M3101 2160L3042.2 2108.5C2983.3 2057 2865.7 1954 2852 1851.2C2838.3 1748.3 2928.7 1645.7 2937 1542.8C2945.3 1440 2871.7 1337 2868.7 1234.2C2865.7 1131.3 2933.3 1028.7 2938 925.8C2942.7 823 2884.3 720 2830.5 617.2C2776.7 514.3 2727.3 411.7 2713.2 308.8C2699 206 2720 103 2730.5 51.5L2741 0L3840 0L3840 51.5C3840 103 3840 206 3840 308.8C3840 411.7 3840 514.3 3840 617.2C3840 720 3840 823 3840 925.8C3840 1028.7 3840 1131.3 3840 1234.2C3840 1337 3840 1440 3840 1542.8C3840 1645.7 3840 1748.3 3840 1851.2C3840 1954 3840 2057 3840 2108.5L3840 2160Z" fill="#008ef3"></path><path d="M3176 2160L3197.7 2108.5C3219.3 2057 3262.7 1954 3268.8 1851.2C3275 1748.3 3244 1645.7 3205 1542.8C3166 1440 3119 1337 3132 1234.2C3145 1131.3 3218 1028.7 3261.8 925.8C3305.7 823 3320.3 720 3325.5 617.2C3330.7 514.3 3326.3 411.7 3327.7 308.8C3329 206 3336 103 3339.5 51.5L3343 0L3840 0L3840 51.5C3840 103 3840 206 3840 308.8C3840 411.7 3840 514.3 3840 617.2C3840 720 3840 823 3840 925.8C3840 1028.7 3840 1131.3 3840 1234.2C3840 1337 3840 1440 3840 1542.8C3840 1645.7 3840 1748.3 3840 1851.2C3840 1954 3840 2057 3840 2108.5L3840 2160Z" fill="#0079ea"></path><path d="M3387 2160L3387 2108.5C3387 2057 3387 1954 3407.5 1851.2C3428 1748.3 3469 1645.7 3457.2 1542.8C3445.3 1440 3380.7 1337 3380.3 1234.2C3380 1131.3 3444 1028.7 3474.8 925.8C3505.7 823 3503.3 720 3470.7 617.2C3438 514.3 3375 411.7 3371.5 308.8C3368 206 3424 103 3452 51.5L3480 0L3840 0L3840 51.5C3840 103 3840 206 3840 308.8C3840 411.7 3840 514.3 3840 617.2C3840 720 3840 823 3840 925.8C3840 1028.7 3840 1131.3 3840 1234.2C3840 1337 3840 1440 3840 1542.8C3840 1645.7 3840 1748.3 3840 1851.2C3840 1954 3840 2057 3840 2108.5L3840 2160Z" fill="#1363df"></path></svg>